<svg width="54" height="59" viewBox="0 0 54 59" fill="none" xmlns="http://www.w3.org/2000/svg">
<g clip-path="url(#clip0_14_357)">
<path d="M0.167763 12.7536C0.506279 11.1291 1.33844 9.67857 2.52796 8.63967C3.71747 7.60077 5.19384 7.03504 6.71526 7.03516H47.0076C48.529 7.03504 50.0054 7.60077 51.1949 8.63967C52.3844 9.67857 53.2166 11.1291 53.5551 12.7536L26.8614 30.6225L0.167763 12.7536ZM-0.00012207 16.9533V43.0781L19.4846 29.9936L-0.00012207 16.9533ZM22.7012 32.1523L0.641197 46.9615C1.18624 48.2202 2.04648 49.2835 3.1218 50.0277C4.19712 50.7718 5.44328 51.1662 6.71526 51.1648H47.0076C48.2793 51.1651 49.525 50.7699 50.5997 50.0251C51.6744 49.2804 52.534 48.2167 53.0783 46.9578L31.0182 32.1486L26.8614 34.9325L22.7012 32.1523ZM34.2383 29.9973L53.723 43.0781V16.9533L34.2383 29.9973Z" fill="black"/>
</g>
<defs>
<clipPath id="clip0_14_357">
<rect width="53.7231" height="58.8396" fill="white"/>
</clipPath>
</defs>
</svg>
